<svg width="1921" height="3941" viewBox="0 0 1921 3941" fill="none" xmlns="http://www.w3.org/2000/svg">
<g clip-path="url(#clip0_2117_11413)">
<rect x="1921" y="3941" width="1921" height="3941" transform="rotate(-180 1921 3941)" fill="url(#paint0_linear_2117_11413)"/>
<path fill-rule="evenodd" clip-rule="evenodd" d="M1165.8 4163.42C1077.78 4247.97 948.42 4301.36 804.219 4301.36C696.618 4301.36 597.282 4271.63 517.217 4221.41C431.67 4287.63 317.422 4328.07 191.93 4328.07C-73.276 4328.07 -288.268 4147.45 -288.268 3924.64C-288.268 3701.84 -73.276 3521.22 191.93 3521.22C299.532 3521.22 398.868 3550.95 478.932 3601.17C541.43 3552.8 619.246 3518.18 705.573 3503.04C705.53 3500.84 705.509 3498.63 705.509 3496.42C705.509 3273.62 920.501 3093 1185.71 3093C1325.91 3093 1452.07 3143.48 1539.86 3223.98C1606 3195.13 1681.14 3178.83 1760.8 3178.83C2026.01 3178.83 2241 3359.45 2241 3582.26C2241 3720.18 2158.62 3841.93 2032.95 3914.69C2033.04 3918 2033.09 3921.32 2033.09 3924.64C2033.09 4147.45 1818.1 4328.07 1552.89 4328.07C1394.04 4328.07 1253.21 4263.27 1165.8 4163.42ZM-802.801 4124.93C-537.594 4124.93 -322.602 3944.31 -322.602 3721.5C-322.602 3498.7 -537.594 3318.08 -802.801 3318.08C-1068.01 3318.08 -1283 3498.7 -1283 3721.5C-1283 3944.31 -1068.01 4124.93 -802.801 4124.93Z" fill="url(#paint1_linear_2117_11413)"/>
<path fill-rule="evenodd" clip-rule="evenodd" d="M-1024.85 3669.56C-1156.62 3593.27 -1243 3465.61 -1243 3321C-1243 3087.38 -1017.57 2898 -739.5 2898C-572.271 2898 -424.083 2966.49 -332.515 3071.91C-254.484 3030.18 -161.852 3006 -62.4995 3006C92.2898 3006 230.765 3064.68 323.127 3157.01C406.275 3106.06 508.709 3076 619.5 3076C798.953 3076 956.478 3154.87 1045.64 3273.6C1255.53 3324.6 1409 3487.24 1409 3680C1409 3913.62 1183.58 4103 905.5 4103C773.92 4103 654.128 4060.6 564.429 3991.17C480.48 4043.82 376.324 4075 263.5 4075C112.303 4075 -23.3295 4019.01 -115.622 3930.36C-207.276 4035.06 -354.943 4103 -521.5 4103C-799.575 4103 -1025 3913.62 -1025 3680C-1025 3676.51 -1024.95 3673.03 -1024.85 3669.56Z" fill="url(#paint2_linear_2117_11413)"/>
</g>
<defs>
<linearGradient id="paint0_linear_2117_11413" x1="2881.5" y1="3941" x2="2881.5" y2="7882" gradientUnits="userSpaceOnUse">
<stop stop-color="#D7FFF3"/>
<stop offset="1" stop-color="white" stop-opacity="0"/>
</linearGradient>
<linearGradient id="paint1_linear_2117_11413" x1="478.524" y1="3130.2" x2="478.524" y2="3763.94" gradientUnits="userSpaceOnUse">
<stop stop-color="white"/>
<stop offset="1" stop-color="white" stop-opacity="0.86"/>
</linearGradient>
<linearGradient id="paint2_linear_2117_11413" x1="605" y1="2847" x2="602.472" y2="4102.74" gradientUnits="userSpaceOnUse">
<stop stop-color="white"/>
<stop offset="1" stop-color="white" stop-opacity="0"/>
</linearGradient>
<clipPath id="clip0_2117_11413">
<rect width="1921" height="3941" fill="white"/>
</clipPath>
</defs>
</svg>
